<svg width="215" height="17" viewBox="0 0 215 17" fill="none" xmlns="http://www.w3.org/2000/svg">
  <path d="M11.6053 13.2377H5.20502L4.07423 16.469H0.704468L6.58459 0.585388H10.2257L16.0832 16.469H12.7135L11.6053 13.2377ZM10.7459 10.8028L8.39385 4.02154L6.04181 10.8028H10.7459Z" fill="black"/>
  <path d="M35.015 0.585388V16.469H31.8488V5.38689L27.8005 16.469H25.0414L20.9932 5.4324V16.469H17.8043V0.585388H21.6716L26.4662 12.5323L31.1703 0.585388H35.015Z" fill="black"/>
  <path d="M41.0912 0.40334V16.469H37.9024V0.40334H41.0912Z" fill="black"/>
  <path d="M57.5003 16.469H54.3114L47.1648 5.54618V16.469H43.976V0.40334H47.1648L54.3114 11.4172V0.40334H57.5003V16.469Z" fill="black"/>
  <path d="M67.8716 0.175781C69.3642 0.175781 70.7136 0.524706 71.9198 1.22255C73.1411 1.9204 74.0985 2.89891 74.792 4.15807C75.5006 5.40206 75.855 6.81293 75.855 8.39068C75.855 9.96842 75.5006 11.3869 74.792 12.646C74.0985 13.9052 73.1411 14.8837 71.9198 15.5816C70.7136 16.2794 69.3642 16.6283 67.8716 16.6283C66.3789 16.6283 65.022 16.2794 63.8007 15.5816C62.5945 14.8837 61.6371 13.9052 60.9285 12.646C60.235 11.3869 59.8882 9.96842 59.8882 8.39068C59.8882 6.81293 60.235 5.40206 60.9285 4.15807C61.6371 2.89891 62.5945 1.9204 63.8007 1.22255C65.022 0.524706 66.3789 0.175781 67.8716 0.175781ZM67.8716 3.13405C66.9368 3.13405 66.1151 3.34644 65.4064 3.77122C64.6978 4.196 64.14 4.81041 63.7329 5.61445C63.3409 6.40332 63.1449 7.32873 63.1449 8.39068C63.1449 9.45262 63.3409 10.3856 63.7329 11.1897C64.14 11.9785 64.6978 12.5854 65.4064 13.0101C66.1151 13.4349 66.9368 13.6473 67.8716 13.6473C68.8064 13.6473 69.6281 13.4349 70.3367 13.0101C71.0453 12.5854 71.5956 11.9785 71.9877 11.1897C72.3947 10.3856 72.5983 9.45262 72.5983 8.39068C72.5983 7.32873 72.3947 6.40332 71.9877 5.61445C71.5956 4.81041 71.0453 4.196 70.3367 3.77122C69.6281 3.34644 68.8064 3.13405 67.8716 3.13405Z" fill="black"/>
  <path fill-rule="evenodd" clip-rule="evenodd" d="M77.9229 0.526469H81.577V13.6312H86.7387V16.5848H77.9229V0.526469ZM78.5061 1.11335V15.9979H86.1555V14.2181H80.9938V1.11335H78.5061ZM87.9831 0.526469H97.7354V3.56775H91.6372V6.99118H97.0821V9.9448H91.6372V13.5216H97.7354V16.5848H87.9831V0.526469ZM88.5663 1.11335V15.9979H97.1522V14.1085H91.0539V9.35792H96.4988V7.57806H91.0539V2.98087H97.1522V1.11335H88.5663ZM114.761 0.526469H118.281L124.714 10.4402V0.526469H128.368V16.5848H124.848L118.415 6.75193V16.5848H114.761V0.526469ZM115.344 1.11335V15.9979H117.831V4.79314L125.163 15.9979H127.785V1.11335H125.297V12.4126L117.965 1.11335H115.344ZM104.045 0.701783H107.957L113.814 16.5848H109.942L108.875 13.473H103.125L102.036 16.5848H98.165L104.045 0.701783ZM104.45 1.28867L99.0047 15.9979H101.623L102.712 12.8861H109.29L110.358 15.9979H112.976L107.551 1.28867H104.45ZM105.99 3.41372L108.666 11.1282H103.314L105.99 3.41372ZM104.135 10.5413H107.844L105.99 5.19484L104.135 10.5413Z" fill="black"/>
  <path d="M144.368 0.592285V16.2118" stroke="black"/>
  <path d="M160.368 15.8995H164.894V11.8002H168.656C171.601 11.8002 172.473 11.8542 172.746 12.0699C173.019 12.2857 173.128 12.6093 173.128 14.1196L173.182 15.8995H193.631C195.049 15.8456 195.921 14.9826 196.357 14.3353C196.848 13.4723 196.684 13.0947 196.684 11.3687C196.684 8.83365 196.139 7.86277 194.449 7.10764C193.685 6.78401 193.14 6.73008 188.778 6.6222C183.761 6.51432 183.488 6.46039 183.379 5.70526C183.27 5.00406 183.379 4.73437 184.088 4.6265C184.961 4.35681 208.463 4.35681 209.117 4.6265C209.717 4.84225 209.99 5.43557 209.881 6.13676C209.662 7.32339 209.826 7.26945 203.337 7.26945H197.557V15.8456H202.246V11.2609L206.881 11.2069C211.407 11.153 211.244 11.2609 212.389 10.8833C213.098 10.6675 214.188 10.3979 214.516 8.51003L214.461 6.08282C214.406 2.6308 214.406 1.22841 211.189 1.0666C210.698 0.850847 181.907 0.958723 181.689 1.12054C181.689 1.17447 182.234 1.0666 181.689 1.12054C180.489 1.22841 179.453 2.30717 179.017 3.11624C178.69 3.76349 178.635 4.195 178.635 5.65132C178.635 7.91671 179.017 8.83365 180.435 9.48091C181.307 9.91241 181.58 9.91241 185.833 10.0742C191.068 10.236 191.559 10.236 191.94 10.8833C192.213 11.2069 192.268 12.2317 191.395 12.3936H177.763L177.654 11.6924C177.545 10.9372 176.672 9.91241 176.181 9.91241C176.018 9.91241 176.29 9.58878 176.727 9.15728C177.763 8.1864 177.981 7.32339 177.872 5.21981C177.763 3.22411 176.4 1.17447 174.818 1.0666C174.655 1.12054 174.982 1.17447 174.818 1.0666C174.6 0.958723 171.274 0.904785 167.402 0.904785H160.368V15.8995ZM172.855 5.16588C173.291 5.70526 173.291 6.89189 172.91 7.48521C172.637 7.86277 172.582 7.86277 168.765 7.86277H164.894V4.6265L168.711 4.68044C172.473 4.73437 172.528 4.73437 172.855 5.16588Z" fill="black"/>
</svg>
